<svg xmlns="http://www.w3.org/2000/svg" viewBox="0 0 95.86 20" role="img" aria-label="Uber Eats">
  <path fill="#ffffff" d="M1.5296566077003122 0.2601456815816867H4.609781477627472V8.522372528616025Q4.609781477627472 10.48907388137357 4.724245577523413 11.071800208116546Q4.9219562955254945 12.008324661810615 5.665972944849116 12.575442247658689Q6.409989594172737 13.142559833506764 7.700312174817898 13.142559833506764Q9.011446409989594 13.142559833506764 9.677419354838708 12.606659729448491Q10.343392299687824 12.07075962539022 10.478668054110301 11.290322580645162Q10.61394380853278 10.509885535900104 10.61394380853278 8.699271592091572V0.2601456815816867H13.694068678459939V8.272632674297608Q13.694068678459939 11.019771071800209 13.44432882414152 12.154006243496358Q13.194588969823101 13.288241415192509 12.523413111342352 14.068678459937566Q11.852237252861602 14.849115504682622 10.728407908428721 15.312174817898022Q9.604578563995839 15.775234131113423 7.793964620187305 15.775234131113423Q5.608740894901144 15.775234131113423 4.479708636836628 15.270551508844953Q3.3506763787721123 14.765868886576484 2.695109261186264 13.959417273673258Q2.0395421436004164 13.152965660770032 1.8314255983350676 12.2684703433923Q1.5296566077003122 10.957336108220604 1.5296566077003122 8.397502601456816Z"/>
  <path fill="#ffffff" d="M16.795005202913632 15.515088449531738V0.2601456815816867H19.719042663891777V5.754422476586889Q21.071800208116546 4.21436004162331 22.92403746097815 4.21436004162331Q24.94276795005203 4.21436004162331 26.264308012486993 5.6763787721123835Q27.585848074921955 7.138397502601457 27.585848074921955 9.875130072840792Q27.585848074921955 12.705515088449532 26.238293444328825 14.235171696149845Q24.89073881373569 15.764828303850157 22.965660770031217 15.764828303850157Q22.01873048907388 15.764828303850157 21.097814776274713 15.29136316337149Q20.176899063475545 14.817898022892821 19.51092611862643 13.89177939646202V15.515088449531738ZM19.698231009365244 9.750260145681583Q19.698231009365244 11.467221644120709 20.23933402705515 12.289281997918835Q20.998959417273674 13.454734651404788 22.258064516129032 13.454734651404788Q23.225806451612904 13.454734651404788 23.907388137356918 12.627471383975028Q24.588969823100935 11.800208116545265 24.588969823100935 10.020811654526536Q24.588969823100935 8.126951092611863 23.902185223725283 7.2892819979188355Q23.215400624349634 6.451612903225808 22.14360041623309 6.451612903225808Q21.092611862643082 6.451612903225808 20.395421436004163 7.2684703433923Q19.698231009365244 8.085327783558792 19.698231009365244 9.750260145681583Z"/>
  <path fill="#ffffff" d="M36.33714880332987 11.997918834547347 39.250780437044746 12.486992715920916Q38.68886576482831 14.0894901144641 37.47658688865765 14.927159209157129Q36.26430801248699 15.764828303850157 34.443288241415196 15.764828303850157Q31.560874089490117 15.764828303850157 30.17689906347555 13.881373569198752Q29.084287200832467 12.372528616024974 29.084287200832467 10.072840790842871Q29.084287200832467 7.325702393340272 30.520291363163373 5.770031217481791Q31.956295525494276 4.21436004162331 34.1519250780437 4.21436004162331Q36.61810613943808 4.21436004162331 38.043704474505724 5.842872008324663Q39.469302809573364 7.471383975026015 39.40686784599376 10.832466181061395H32.08116545265349Q32.11238293444329 12.133194588969824 32.788761706555675 12.85639958376691Q33.465140478668054 13.579604578563996 34.474505723205 13.579604578563996Q35.16129032258065 13.579604578563996 35.629552549427686 13.204994797086368Q36.09781477627472 12.83038501560874 36.33714880332987 11.997918834547347ZM36.50364203954214 9.042663891779398Q36.47242455775234 7.7731529656607705 35.8480749219563 7.112382934443289Q35.22372528616025 6.451612903225808 34.32882414151925 6.451612903225808Q33.37148803329865 6.451612903225808 32.7471383975026 7.148803329864725Q32.12278876170656 7.845993756503643 32.13319458896982 9.042663891779398Z"/>
  <path fill="#ffffff" d="M44.58896982310093 15.515088449531738H41.664932362122784V4.464099895941729H44.380853277835584V6.03537981269511Q45.0780437044745 4.921956295525495 45.63475546305931 4.568158168574403Q46.19146722164412 4.21436004162331 46.899063475546306 4.21436004162331Q47.898022892819974 4.21436004162331 48.82414151925078 4.765868886576483L47.91883454734651 7.315296566077004Q47.18002081165452 6.836628511966701 46.54526534859521 6.836628511966701Q45.931321540062434 6.836628511966701 45.50468262226847 7.174817898022893Q45.0780437044745 7.513007284079086 44.83350676378772 8.397502601456818Q44.58896982310093 9.281997918834548 44.58896982310093 12.101977107180021Z"/>
  <path fill="#ffffff" d="M52.39334027055151 15.515088449531738V0.2601456815816867H63.704474505723205V2.840790842872009H55.473465140478666V6.222684703433924H63.132154006243496V8.792924037460978H55.473465140478666V12.944849115504683H63.99583766909469V15.515088449531738Z"/>
  <path fill="#ffffff" d="M68.77211238293444 7.835587929240376 66.11862643080124 7.356919875130073Q66.56607700312175 5.754422476586889 67.65868886576483 4.9843912591051Q68.75130072840791 4.21436004162331 70.90530697190427 4.21436004162331Q72.86160249739854 4.21436004162331 73.81893860561914 4.677419354838711Q74.77627471383975 5.1404786680541115 75.16649323621229 5.85327783558793Q75.55671175858481 6.566077003121748 75.55671175858481 8.47034339229969L75.525494276795 11.883454734651405Q75.525494276795 13.340270551508846 75.66597294484912 14.03225806451613Q75.80645161290323 14.724245577523414 76.19146722164412 15.515088449531738H73.29864724245577Q73.18418314255983 15.223725286160251 73.01768990634756 14.651404786680542Q72.94484911550468 14.391259105098856 72.91363163371489 14.308012486992716Q72.16441207075962 15.036420395421437 71.31113423517169 15.400624349635798Q70.45785639958376 15.764828303850157 69.49011446409989 15.764828303850157Q67.78355879292404 15.764828303850157 66.80020811654526 14.838709677419356Q65.81685744016649 13.912591050988555 65.81685744016649 12.497398543184184Q65.81685744016649 11.560874089490115 66.26430801248699 10.82726326742976Q66.7117585848075 10.093652445369408 67.51821019771072 9.70343392299688Q68.32466181061395 9.313215400624351 69.843912591051 9.021852237252862Q71.89386056191466 8.636836628511968 72.68470343392299 8.30385015608741V8.012486992715921Q72.68470343392299 7.169614984391259 72.2684703433923 6.810613943808534Q71.8522372528616 6.451612903225808 70.69719042663891 6.451612903225808Q69.91675338189386 6.451612903225808 69.47970863683662 6.758584807492197Q69.0426638917794 7.065556711758585 68.77211238293444 7.835587929240376ZM72.68470343392299 10.208116545265348Q72.12278876170656 10.395421436004163 70.90530697190427 10.65556711758585Q69.68782518210197 10.915712799167535 69.31321540062434 11.165452653485954Q68.74089490114464 11.571279916753383 68.74089490114464 12.195629552549429Q68.74089490114464 12.809573361082206 69.19875130072842 13.257023933402706Q69.65660770031218 13.704474505723205 70.36420395421436 13.704474505723205Q71.15504682622269 13.704474505723205 71.87304890738814 13.184183142559835Q72.40374609781477 12.788761706555672 72.57023933402705 12.216441207075963Q72.68470343392299 11.841831425598336 72.68470343392299 10.790842872008326Z"/>
  <path fill="#ffffff" d="M83.50676378772113 4.464099895941729V6.795005202913632H81.50884495317378V11.248699271592091Q81.50884495317378 12.601456815816858 81.56607700312175 12.82518210197711Q81.62330905306972 13.048907388137359 81.82622268470342 13.194588969823101Q82.02913631633714 13.340270551508846 82.32049947970863 13.340270551508846Q82.72632674297606 13.340270551508846 83.49635796045786 13.059313215400625L83.74609781477628 15.327783558792925Q82.72632674297606 15.764828303850157 81.4360041623309 15.764828303850157Q80.64516129032258 15.764828303850157 80.01040582726327 15.499479708636837Q79.37565036420395 15.234131113423517 79.07908428720083 14.812695109261186Q78.78251821019771 14.391259105098856 78.66805411030177 13.673257023933404Q78.57440166493235 13.163371488033299 78.57440166493235 11.612903225806452V6.795005202913632H77.23204994797086V4.464099895941729H78.57440166493235V2.2684703433923L81.50884495317378 0.5619146722164423V4.464099895941729Z"/>
  <path fill="#ffffff" d="M84.50572320499481 12.362122788761708 87.44016649323622 11.914672216441208Q87.62747138397503 12.767950052029137 88.19979188345474 13.210197710718003Q88.77211238293445 13.652445369406868 89.80228928199793 13.652445369406868Q90.93652445369408 13.652445369406868 91.50884495317378 13.23621227887617Q91.89386056191468 12.944849115504683 91.89386056191468 12.455775234131114Q91.89386056191468 12.122788761706556 91.68574401664932 11.904266389177941Q91.46722164412071 11.696149843912591 90.7075962539022 11.519250780437044Q87.16961498439127 10.738813735691988 86.22268470343393 10.093652445369408Q84.91155046826223 9.198751300728409 84.91155046826223 7.6066597294484914Q84.91155046826223 6.170655567117587 86.04578563995838 5.1925078043704485Q87.18002081165453 4.21436004162331 89.56295525494278 4.21436004162331Q91.83142559833507 4.21436004162331 92.93444328824143 4.953173777315297Q94.03746097814778 5.691987513007284 94.45369406867847 7.138397502601457L91.6961498439126 7.648283038501561Q91.51925078043705 7.00312174817898 91.02497398543184 6.659729448491156Q90.53069719042665 6.316337148803331 89.61498439125911 6.316337148803331Q88.45993756503643 6.316337148803331 87.96045785639959 6.638917793964621Q87.62747138397503 6.867845993756504 87.62747138397503 7.232049947970864Q87.62747138397503 7.544224765868887 87.91883454734652 7.762747138397503Q88.31425598335068 8.054110301768992 90.65036420395421 8.58480749219563Q92.98647242455776 9.11550468262227 93.91259105098857 9.88553590010406Q94.82830385015609 10.665972944849116 94.82830385015609 12.060353798126952Q94.82830385015609 13.579604578563996 93.55879292403746 14.672216441207077Q92.28928199791883 15.764828303850157 89.80228928199793 15.764828303850157Q87.54422476586889 15.764828303850157 86.22788761706556 14.849115504682622Q84.91155046826223 13.933402705515089 84.50572320499481 12.362122788761708Z"/>
</svg>